<?xml version="1.0" encoding="utf-8" ?>
<svg baseProfile="full" height="350" version="1.1" width="350" xmlns="http://www.w3.org/2000/svg" xmlns:ev="http://www.w3.org/2001/xml-events" xmlns:xlink="http://www.w3.org/1999/xlink"><defs /><rect fill="#ffffff" height="50" stroke="#000000" stroke-width="3" width="50" x="50" y="50" /><text dominant-baseline="middle" text-anchor="middle" x="75" y="75">R1</text><rect fill="#ffffff" height="50" stroke="#000000" stroke-width="3" width="50" x="250" y="50" /><text dominant-baseline="middle" text-anchor="middle" x="275" y="75">R2</text><rect fill="#ffffff" height="50" stroke="#000000" stroke-width="3" width="50" x="50" y="250" /><text dominant-baseline="middle" text-anchor="middle" x="75" y="275">R3</text><rect fill="#ffffff" height="50" stroke="#000000" stroke-width="3" width="50" x="250" y="250" /><text dominant-baseline="middle" text-anchor="middle" x="275" y="275">R4</text><circle cx="75" cy="175" fill="#ffffff" r="25" stroke="#000000" stroke-width="3" /><text dominant-baseline="middle" text-anchor="middle" x="75" y="175">P1</text><circle cx="175" cy="175" fill="#ffffff" r="25" stroke="#000000" stroke-width="3" /><text dominant-baseline="middle" text-anchor="middle" x="175" y="175">P2</text><circle cx="275" cy="175" fill="#ffffff" r="25" stroke="#000000" stroke-width="3" /><text dominant-baseline="middle" text-anchor="middle" x="275" y="175">P3</text><circle cx="175" cy="275" fill="#ffffff" r="25" stroke="#000000" stroke-width="3" /><text dominant-baseline="middle" text-anchor="middle" x="175" y="275">P4</text><path d="M 75 100 C 75 87.0 87.0 100 125.0, 100 L 117.0 103 M 125.0 100 L 117.0 97" fill="none" stroke="#FF0000" stroke-width="2" transform="rotate(90.0, 75, 100)" /><path d="M 100 250.0 C 100 229.0 120.0 250.0 181.3203541556479, 250.0 L 173.3203541556479 253.0 M 181.3203541556479 250.0 L 173.3203541556479 247.0" fill="none" stroke="#FF0000" stroke-width="2" transform="rotate(-45.498211612613645, 100, 250.0)" /><path d="M 250 250.0 C 250 229.0 270.0 250.0 332.0243866176395, 250.0 L 324.0243866176395 253.0 M 332.0243866176395 250.0 L 324.0243866176395 247.0" fill="none" stroke="#00FF00" stroke-width="2" transform="rotate(-135.0, 250, 250.0)" /><path d="M 75 150 C 75 137.0 87.0 150 125.0, 150 L 117.0 153 M 125.0 150 L 117.0 147" fill="none" stroke="#FF0000" stroke-width="2" transform="rotate(-90.0, 75, 150)" /><path d="M 157 192 C 157 171.0 177.0 192 238.3203541556479, 192 L 230.3203541556479 195 M 238.3203541556479 192 L 230.3203541556479 189" fill="none" stroke="#FF0000" stroke-width="2" transform="rotate(134.50178838738637, 157, 192)" /><path d="M 192 192 C 192 171.0 212.0 192 274.0243866176395, 192 L 266.0243866176395 195 M 274.0243866176395 192 L 266.0243866176395 189" fill="none" stroke="#00FF00" stroke-width="2" transform="rotate(45.0, 192, 192)" /></svg>