<?xml version="1.0" encoding="utf-8" ?>
<svg baseProfile="full" height="350" version="1.1" width="350" xmlns="http://www.w3.org/2000/svg" xmlns:ev="http://www.w3.org/2001/xml-events" xmlns:xlink="http://www.w3.org/1999/xlink"><defs /><rect fill="#ffffff" height="50" stroke="#000000" stroke-width="3" width="50" x="50" y="50" /><text dominant-baseline="middle" text-anchor="middle" x="75" y="75">R1</text><rect fill="#ffffff" height="50" stroke="#000000" stroke-width="3" width="50" x="250" y="50" /><text dominant-baseline="middle" text-anchor="middle" x="275" y="75">R2</text><rect fill="#ffffff" height="50" stroke="#000000" stroke-width="3" width="50" x="50" y="250" /><text dominant-baseline="middle" text-anchor="middle" x="75" y="275">R3</text><rect fill="#ffffff" height="50" stroke="#000000" stroke-width="3" width="50" x="250" y="250" /><text dominant-baseline="middle" text-anchor="middle" x="275" y="275">R4</text><circle cx="75" cy="175" fill="#ffffff" r="25" stroke="#000000" stroke-width="3" /><text dominant-baseline="middle" text-anchor="middle" x="75" y="175">P1</text><circle cx="175" cy="175" fill="#ffffff" r="25" stroke="#000000" stroke-width="3" /><text dominant-baseline="middle" text-anchor="middle" x="175" y="175">P2</text><circle cx="275" cy="175" fill="#ffffff" r="25" stroke="#000000" stroke-width="3" /><text dominant-baseline="middle" text-anchor="middle" x="275" y="175">P3</text><circle cx="175" cy="275" fill="#ffffff" r="25" stroke="#000000" stroke-width="3" /><text dominant-baseline="middle" text-anchor="middle" x="175" y="275">P4</text><path d="M 75 100 C 75 100 75 100 125.0, 100 L 117.0 103 M 125.0 100 L 117.0 97" fill="none" stroke="#FF0000" stroke-width="2" transform="rotate(90.0, 75, 100)" /><path d="M 100 250.0 C 100 250.0 100 250.0 181.3203541556479, 250.0 L 173.3203541556479 253.0 M 181.3203541556479 250.0 L 173.3203541556479 247.0" fill="none" stroke="#FF0000" stroke-width="2" transform="rotate(-45.498211612613645, 100, 250.0)" /><path d="M 250 250.0 C 250 250.0 250 250.0 332.0243866176395, 250.0 L 324.0243866176395 253.0 M 332.0243866176395 250.0 L 324.0243866176395 247.0" fill="none" stroke="#00FF00" stroke-width="2" transform="rotate(-135.0, 250, 250.0)" /><path d="M 75 200 C 75 200 75 200 125.0, 200 L 117.0 203 M 125.0 200 L 117.0 197" fill="none" stroke="#FF0000" stroke-width="2" transform="rotate(90.0, 75, 200)" /><path d="M 157 157 C 157 157 157 157 237.61017305526642, 157 L 229.61017305526642 160 M 237.61017305526642 157 L 229.61017305526642 154" fill="none" stroke="#FF0000" stroke-width="2" transform="rotate(-135.0, 157, 157)" /><path d="M 200 275 C 200 275 200 275 250.0, 275 L 242.0 278 M 250.0 275 L 242.0 272" fill="none" stroke="#00FF00" stroke-width="2" transform="rotate(0.0, 200, 275)" /></svg>