<?xml version="1.0" encoding="utf-8" ?>
<svg baseProfile="full" height="350" version="1.1" width="350" xmlns="http://www.w3.org/2000/svg" xmlns:ev="http://www.w3.org/2001/xml-events" xmlns:xlink="http://www.w3.org/1999/xlink"><defs /><rect fill="#ffffff" height="50" stroke="#AA0000" stroke-width="3" width="50" x="50" y="50" /><text dominant-baseline="middle" text-anchor="middle" x="75" y="75">R1</text><rect fill="#ffffff" height="50" stroke="#AA0000" stroke-width="3" width="50" x="250" y="50" /><text dominant-baseline="middle" text-anchor="middle" x="275" y="75">R2</text><rect fill="#ffffff" height="50" stroke="#AA0000" stroke-width="3" width="50" x="50" y="250" /><text dominant-baseline="middle" text-anchor="middle" x="75" y="275">R3</text><rect fill="#ffffff" height="50" stroke="#AA0000" stroke-width="3" width="50" x="250" y="250" /><text dominant-baseline="middle" text-anchor="middle" x="275" y="275">R4</text><circle cx="75" cy="175" fill="#ffffff" r="25" stroke="#0000AA" stroke-width="3" /><text dominant-baseline="middle" text-anchor="middle" x="75" y="175">P1</text><circle cx="175" cy="175" fill="#ffffff" r="25" stroke="#0000AA" stroke-width="3" /><text dominant-baseline="middle" text-anchor="middle" x="175" y="175">P2</text><circle cx="275" cy="175" fill="#ffffff" r="25" stroke="#0000AA" stroke-width="3" /><text dominant-baseline="middle" text-anchor="middle" x="275" y="175">P3</text><circle cx="175" cy="275" fill="#ffffff" r="25" stroke="#0000AA" stroke-width="3" /><text dominant-baseline="middle" text-anchor="middle" x="175" y="275">P4</text><path d="M 75 100 C 75 100 75 100 125.0, 100 L 117.0 103 M 125.0 100 L 117.0 97" fill="none" stroke="#000000" stroke-width="2" transform="rotate(90.0, 75, 100)" /><path d="M 275 100 C 275 100 275 100 325.0, 100 L 317.0 103 M 325.0 100 L 317.0 97" fill="none" stroke="#000000" stroke-width="2" transform="rotate(90.0, 275, 100)" /><path d="M 100 250.0 C 100 250.0 100 250.0 181.3203541556479, 250.0 L 173.3203541556479 253.0 M 181.3203541556479 250.0 L 173.3203541556479 247.0" fill="none" stroke="#000000" stroke-width="2" transform="rotate(-45.498211612613645, 100, 250.0)" /><path d="M 250 275 C 250 275 250 275 300.0, 275 L 292.0 278 M 300.0 275 L 292.0 272" fill="none" stroke="#000000" stroke-width="2" transform="rotate(180.0, 250, 275)" /><path d="M 97 186 C 97 186 97 186 268.0592002787339, 186 L 260.0592002787339 189 M 268.0592002787339 186 L 260.0592002787339 183" fill="none" stroke="#000000" stroke-width="2" transform="rotate(26.565051177077994, 97, 186)" /><path d="M 157 157 C 157 157 157 157 237.61017305526642, 157 L 229.61017305526642 160 M 237.61017305526642 157 L 229.61017305526642 154" fill="none" stroke="#000000" stroke-width="2" transform="rotate(-135.0, 157, 157)" /><path d="M 275 150 C 275 150 275 150 325.0, 150 L 317.0 153 M 325.0 150 L 317.0 147" fill="none" stroke="#000000" stroke-width="2" transform="rotate(-90.0, 275, 150)" /><path d="M 150 275 C 150 275 150 275 200.0, 275 L 192.0 278 M 200.0 275 L 192.0 272" fill="none" stroke="#000000" stroke-width="2" transform="rotate(180.0, 150, 275)" /></svg>